<?xml version="1.0" encoding="utf-8"?>
<!-- Generator: Adobe Illustrator 19.0.0, SVG Export Plug-In . SVG Version: 6.00 Build 0)  -->
<svg version="1.1" id="Layer_1" xmlns="http://www.w3.org/2000/svg" xmlns:xlink="http://www.w3.org/1999/xlink" x="0px" y="0px"
	 viewBox="0 0 1024 768" style="enable-background:new 0 0 1024 768;" xml:space="preserve">
<style type="text/css">
	.st0{fill:#E81757;}
</style>
<g id="XMLID_1_">
	<path id="XMLID_55_" class="st0" d="M899.4,606c-25.6-7.2-48.3,6.7-71.9,28.4c-53.5,49.4-119.2,78-188.7,97.7
		c-53.8,15.3-108.4,26.6-164.9,24.9c-58.3-1.7-115.1-12.6-171.4-27.2c-88.3-22.9-173.8-54.1-257.4-90.5c-5.9-2.6-12.4-3.6-17.5-8.4
		c-5.3-5-7.5-10.7-5.2-17.6c2.2-6.6,7.7-9.2,14.1-9.9c2.6-0.3,5.3-0.2,7.8,0.3c52.1,12.3,88.1-13.3,111.4-50.8
		c19.9-32,29.1-67.7,37.3-104c8.9-39.2,4-79.1,8.8-118.6c11.7-96.3,55.8-174.3,130.2-235.3c66.2-54.3,143-84.4,228.6-84.4
		c159.6,0.1,276,73.5,345.8,216.7c39,79.9,46.1,164.6,22.2,251c-3.1,11.1,0.8,14,11.2,13.8c26-0.5,45.7,10.9,57.2,34.2
		c17.2,35-10.1,77.7-50.5,79.4C933.2,606.5,919.6,606,899.4,606z M877.1,234.9l-0.9-0.9c-4.4-9.4-8.1-19.3-13.3-28.2
		C785.1,71.3,607.2,5.8,460.5,57.3c-141.7,49.8-232.1,173.8-230.7,319.1c0.5,52.4-9.2,102.4-27.6,150.9
		c-14.9,39.3-35.9,74.7-74.4,96.3c-4.6,2.6-13,3.4-12,10.2c0.7,4.5,8.4,5.4,13.1,7.2c63.9,24.7,128.5,47,195.2,62.9
		c71.1,17,142.5,30.2,216.2,18.4c68.4-11,134.8-28.3,196.4-60.8c64.6-34.1,116.7-81,147.2-148.5c28.2-62.3,33.9-127.7,21.6-194.6
		C900.2,289.3,892.8,260.6,877.1,234.9z M921.7,575.4C921.7,575.3,921.7,575.3,921.7,575.4c8.7-0.1,17.5,0.4,26.1-0.2
		c16.3-1.2,25.2-11.7,24.3-28c-0.6-11-5.3-20.3-16.7-22c-14.9-2.2-30.6-7.4-44.7,3.6c-0.3,0.3-0.5,0.7-0.7,1.1
		c-6.9,12.1-13.8,24.2-20.7,36.3c-3.4,5.9-1.8,9.1,5.1,9.2C903.4,575.4,912.5,575.4,921.7,575.4z"/>
	<path id="XMLID_48_" class="st0" d="M561.1,506.5c21.8,0,43.6-0.2,65.4,0c32.1,0.4,59,26,59.3,56c0.3,30.3-25.7,56.7-58,57.3
		c-43.6,0.7-87.2,0.3-130.8,0.2c-10.6,0-20-3.3-20-15.6c0-12.7,9.8-14.9,20.3-14.9c42.7,0,85.5,0.1,128.2-0.2
		c19.1-0.2,28.3-7.6,29.7-22.6c1.6-16.7-7.5-28.9-24.2-29.2c-47.1-0.7-94.2-0.6-141.3,0c-14.3,0.2-21.5,8.2-24.2,22.9
		c-2.6,14.1-8.6,19.4-19.2,16.9c-9.2-2.2-13.2-11.3-10.4-23.5c6.4-27.7,29.9-46.9,58.4-47.2C516.6,506.2,538.9,506.5,561.1,506.5z"
		/>
	<path id="XMLID_47_" class="st0" d="M695.5,288.6c-1.6,11.8-0.5,25-3.6,37.9c-6.4,26.5-29.7,47.9-56.7,51.1
		c-9.8,1.2-19-0.3-20.8-12.4c-1.6-11,5.1-15.7,15.1-17.2c8.2-1.2,16.4-2.7,22.9-8.6c2.3-2.1,5-4.4,4.6-7.5c-0.5-3.7-4.4-3.7-7.3-4.2
		c-13.6-2.6-24.1-9.7-31-21.8c-1.5-2.6-3-5.4-3.6-8.3c-1.9-9.3-3.4-19.2,8.1-23.1c11.8-4,18.1,2.5,20.5,13.6
		c1.4,6.6,5.1,10.4,12,8.7c6.8-1.7,6.2-7.6,5.4-12.9c-0.8-4.9-5.3-5.2-9-6.3c-7.3-2.1-12.8-5.7-12.9-14.2
		c-0.1-8.1,3.6-13.2,11.6-15.1c9.7-2.3,6.9-7.3,2.1-11.7c-11.3-10.2-24.9-10.3-38.2-6.3c-11.6,3.5-19.3,12.5-20,25
		c-1,16.1-0.7,32.3-1,48.4c-0.1,5.2,0,10.5-2.3,15.4c-2.8,5.9-7.6,8.5-13.7,8.2c-6.6-0.3-12.7-3.5-13.1-10.5
		c-1.6-25.2-5.4-51,2.9-75.3c10.2-29.9,40.3-47.3,70-43.3c28.8,3.9,53,29.8,56.4,60.6C694.8,268.3,694.9,277.9,695.5,288.6z"/>
	<path id="XMLID_46_" class="st0" d="M877.1,234.9c1.7,25.2,4.4,50.3,1,75.5c-3.3,24.5-25.6,47.3-48.7,49.9
		c-10.3,1.2-20.3,0.3-22.3-12.2c-1.8-11.5,6.2-16.1,16.3-18c1.6-0.3,3.1-1.2,6.1-2.5c-14.5-7.1-25.1-15.9-29.8-30.7
		c-3.3-10.5-1.7-18.8,8.6-22.5c10.4-3.8,17.7,0.9,20,12.3c1.3,6.8,4.8,11.5,12.6,9.8c6.3-1.3,6.1-6.5,5.8-11.5
		c-0.3-5.1-4.1-6.2-8-7.1c-8.4-1.9-15-6.1-14.7-15.6c0.3-9.3,6.1-13.9,15.2-14.7c8.3-0.7,8.2-5.4,4.2-10.7
		c-7.1-9.4-17.1-11.6-28.1-9.5c-10.3,1.9-17.8,7.4-19.5,18.4c-1.8,12.1-1.7,24.4-0.3,36.5c1,8.8,0.1,17.5-2.7,25.8
		c-2.3,6.9-7.6,11-14.9,10.2c-7.2-0.7-12.6-5.1-12.9-12.6c-1.1-22.6-4-45.7,1.8-67.8c10.4-40,58.7-54.6,90.1-28
		c7.7,6.6,17,12.5,19.1,23.8C876.1,234,877.1,234.9,877.1,234.9z"/>
	<path id="XMLID_45_" class="st0" d="M827.2,445.9c0.2,23-19.8,46-42.8,48.9c-9.1,1.1-17-1.5-19-11.5c-2.2-11.2,3.7-16.6,14.7-18.6
		c14-2.6,19-10.5,16.2-23.2c-2.1-9.6-11.4-14.2-22.8-11.4c-8,1.9-11.3,7.5-12,15.1c-1,10.9-6.6,17.4-17.9,15.6
		c-11.9-1.8-13.5-11-12.1-20.9c3.2-23.3,28.1-43,51.4-41.1C806.3,400.8,827,422.7,827.2,445.9z"/>
</g>
</svg>
