<svg xmlns:xlink="http://www.w3.org/1999/xlink" height="100%" width="100%"  fill="#f4f4f4f4;" xmlns:dc="http://purl.org/dc/elements/1.1/" xmlns:cc="http://creativecommons.org/ns#" xmlns:rdf="http://www.w3.org/1999/02/22-rdf-syntax-ns#" xmlns:svg="http://www.w3.org/2000/svg" xmlns="http://www.w3.org/2000/svg" xmlns:sodipodi="http://sodipodi.sourceforge.net/DTD/sodipodi-0.dtd" xmlns:inkscape="http://www.inkscape.org/namespaces/inkscape" version="1.1" x="0px" y="0px" viewBox="0 0 100 100"><g transform="translate(0,-952.36218)"><path style="color:#f4f4f4f4;font-style:normal;font-variant:normal;font-weight:normal;font-stretch:normal;font-size:medium;line-height:normal;font-family:sans-serif;font-variant-ligatures:normal;font-variant-position:normal;font-variant-caps:normal;font-variant-numeric:normal;font-variant-alternates:normal;font-feature-settings:normal;text-indent:0;text-align:start;text-decoration:none;text-decoration-line:none;text-decoration-style:solid;text-decoration-color:#f4f4f4f4;letter-spacing:normal;word-spacing:normal;text-transform:none;writing-mode:lr-tb;direction:ltr;text-orientation:mixed;dominant-baseline:auto;baseline-shift:baseline;text-anchor:start;white-space:normal;shape-padding:0;clip-rule:nonzero;display:inline;overflow:visible;visibility:visible;opacity:1;isolation:auto;mix-blend-mode:normal;color-interpolation:sRGB;color-interpolation-filters:linearRGB;solid-color:#f4f4f4;solid-opacity:1;vector-effect:none;fill:#f4f4f4f4;;fill-opacity:1;fill-rule:nonzero;stroke:none;stroke-width:6;stroke-linecap:round;stroke-linejoin:round;stroke-miterlimit:4;stroke-dasharray:none;stroke-dashoffset:0;stroke-opacity:1;marker:none;color-rendering:auto;image-rendering:auto;shape-rendering:auto;text-rendering:auto;enable-background:accumulate" d="M 8.578125,990.60352 C 6.6524245,990.60352 5,992.24603 5,994.17969 v 41.60551 c 0,1.9332 1.6524245,3.5761 3.578125,3.5761 h 43.125 c 1.925701,0 3.578125,-1.6429 3.578125,-3.5761 v -7.8184 a 3.0003,3.0003 0 1 0 -6,0 v 5.3945 H 11 v -36.75778 h 27.755859 a 3.0003,3.0003 0 1 0 0,-6 z"></path><path style="opacity:1;color:#f4f4f4;fill:#f4f4f4;stroke:none;stroke-width:6;stroke-linecap:round;stroke-linejoin:round;stroke-miterlimit:4;stroke-opacity:1;stroke-dasharray:none;stroke-dashoffset:0;marker:none;visibility:visible;display:inline;overflow:visible;enable-background:accumulate" d="m 19.792328,1001.3422 c -1.87967,0 -3.393303,1.5208 -3.393303,3.3844 0,1.8637 1.513633,3.3844 3.393303,3.3844 1.879669,0 3.417368,-1.5207 3.417368,-3.3844 0,-1.8636 -1.537699,-3.3844 -3.417368,-3.3844 z"></path><path style="opacity:1;color:#f4f4f4;fill:#f4f4f4;stroke:none;stroke-width:6;stroke-linecap:round;stroke-linejoin:round;stroke-miterlimit:4;stroke-opacity:1;stroke-dasharray:none;stroke-dashoffset:0;marker:none;visibility:visible;display:inline;overflow:visible;enable-background:accumulate" d="m 30.140697,1011.6154 c -1.87967,0 -3.393303,1.4967 -3.393303,3.3604 0,1.8636 1.513633,3.3844 3.393303,3.3844 1.879669,0 3.393302,-1.5208 3.393302,-3.3844 0,-1.8637 -1.513633,-3.3604 -3.393302,-3.3604 z"></path><path style="opacity:1;color:#f4f4f4f4;fill:#f4f4f4f4;;stroke:none;stroke-width:6;stroke-linecap:round;stroke-linejoin:round;stroke-miterlimit:4;stroke-opacity:1;stroke-dasharray:none;stroke-dashoffset:0;marker:none;visibility:visible;display:inline;overflow:visible;enable-background:accumulate" d="m 19.792328,1021.8646 c -1.87967,0 -3.393303,1.5207 -3.393303,3.3843 0,1.8637 1.513633,3.3604 3.393303,3.3604 1.879669,0 3.417368,-1.4967 3.417368,-3.3604 0,-1.8636 -1.537699,-3.3843 -3.417368,-3.3843 z"></path><path style="opacity:1;color:#f4f4f4f4;fill:#f4f4f4f4;;stroke:none;stroke-width:6;stroke-linecap:round;stroke-linejoin:round;stroke-miterlimit:4;stroke-opacity:1;stroke-dasharray:none;stroke-dashoffset:0;marker:none;visibility:visible;display:inline;overflow:visible;enable-background:accumulate" d="m 40.489066,1021.8646 c -1.87967,0 -3.393303,1.5207 -3.393303,3.3843 0,1.8637 1.513633,3.3604 3.393303,3.3604 1.87967,0 3.393302,-1.4967 3.393302,-3.3604 0,-1.8636 -1.513632,-3.3843 -3.393302,-3.3843 z"></path><path style="color:#f4f4f4;font-style:normal;font-variant:normal;font-weight:normal;font-stretch:normal;font-size:medium;line-height:normal;font-family:sans-serif;font-variant-ligatures:normal;font-variant-position:normal;font-variant-caps:normal;font-variant-numeric:normal;font-variant-alternates:normal;font-feature-settings:normal;text-indent:0;text-align:start;text-decoration:none;text-decoration-line:none;text-decoration-style:solid;text-decoration-color:#f4f4f4f4;letter-spacing:normal;word-spacing:normal;text-transform:none;writing-mode:lr-tb;direction:ltr;text-orientation:mixed;dominant-baseline:auto;baseline-shift:baseline;text-anchor:start;white-space:normal;shape-padding:0;clip-rule:nonzero;display:inline;overflow:visible;visibility:visible;opacity:1;isolation:auto;mix-blend-mode:normal;color-interpolation:sRGB;color-interpolation-filters:linearRGB;solid-color:#f4f4f4;solid-opacity:1;vector-effect:none;fill:#f4f4f4f4;;fill-opacity:1;fill-rule:nonzero;stroke:none;stroke-width:6;stroke-linecap:round;stroke-linejoin:round;stroke-miterlimit:4;stroke-dasharray:none;stroke-dashoffset:0;stroke-opacity:1;marker:none;color-rendering:auto;image-rendering:auto;shape-rendering:auto;text-rendering:auto;enable-background:accumulate" d="m 68.772394,1029.5731 c 1.670569,0.9619 3.923019,0.3612 4.890706,-1.3105 l 20.858504,-36.03298 c 0.967687,-1.67167 0.363148,-3.91757 -1.307473,-4.87956 l -37.348193,-21.5063 c -1.670621,-0.962 -3.924679,-0.36224 -4.892396,1.30949 l -20.858504,36.03295 c -0.967722,1.6718 -0.361406,3.9186 1.309162,4.8806 z m 0.905448,-6.4023 -33.148928,-19.0882 18.429886,-31.83756 33.148928,19.08822 z"></path><path style="opacity:1;color:#f4f4f4f4;fill:#f4f4f4f4;;stroke:none;stroke-width:6;stroke-linecap:round;stroke-linejoin:round;stroke-miterlimit:4;stroke-opacity:1;stroke-dasharray:none;stroke-dashoffset:0;marker:none;visibility:visible;display:inline;overflow:visible;enable-background:accumulate" d="m 76.178875,990.60268 c -1.088034,0.0737 -2.111465,0.67146 -2.695389,1.68016 -0.934277,1.614 -0.376411,3.6952 1.251431,4.6326 1.627842,0.9373 3.710456,0.3898 4.644733,-1.2242 0.934276,-1.6139 0.352341,-3.6951 -1.275497,-4.6325 -0.610441,-0.35152 -1.272457,-0.50027 -1.925278,-0.45606 z"></path><path style="opacity:1;color:#f4f4f4f4;fill:#f4f4f4f4;;stroke:none;stroke-width:6;stroke-linecap:round;stroke-linejoin:round;stroke-miterlimit:4;stroke-opacity:1;stroke-dasharray:none;stroke-dashoffset:0;marker:none;visibility:visible;display:inline;overflow:visible;enable-background:accumulate" d="m 62.076214,994.34714 c -1.088035,0.074 -2.111465,0.6474 -2.695389,1.6562 -0.934277,1.6139 -0.376411,3.6951 1.251431,4.63246 1.627841,0.9374 3.710455,0.3898 4.644733,-1.22416 0.934277,-1.6139 0.352345,-3.6951 -1.275497,-4.6325 -0.610441,-0.3515 -1.272457,-0.4763 -1.925278,-0.432 z"></path><path style="opacity:1;color:#f4f4f4f4;fill:#f4f4f4f4;;stroke:none;stroke-width:6;stroke-linecap:round;stroke-linejoin:round;stroke-miterlimit:4;stroke-opacity:1;stroke-dasharray:none;stroke-dashoffset:0;marker:none;visibility:visible;display:inline;overflow:visible;enable-background:accumulate" d="m 47.973553,998.06754 c -1.088035,0.074 -2.111465,0.6474 -2.695389,1.6562 -0.934278,1.61386 -0.376411,3.69506 1.25143,4.63246 1.627842,0.9373 3.710456,0.3898 4.644734,-1.2241 0.934277,-1.614 0.352345,-3.69516 -1.275497,-4.63256 -0.610441,-0.3515 -1.272457,-0.4762 -1.925278,-0.432 z"></path></g></svg>